<svg xmlns="http://www.w3.org/2000/svg" viewBox="0 0 98.7 100.85"><defs><style>.cls-1{fill:#055056;}.cls-2{fill:#ef4f24;}.cls-3{fill:#ecf0f0;}</style></defs><g id="Layer_2" data-name="Layer 2"><g id="Layer_1-2" data-name="Layer 1"><path class="cls-1" d="M98.45,44.06a5.85,5.85,0,0,0-4-3.62,10.6,10.6,0,0,0-7.37,1,25.56,25.56,0,0,0-5.24,4.66l-.58.61V25l9.44,8.21,2-2.24L57.53.37a1.52,1.52,0,0,0-2,0L19.17,31l2,2.32L32,24.18V48.26h0A8.54,8.54,0,0,0,26,51.74L0,85.53l2.41,1.83L28.5,53.52A5.61,5.61,0,0,1,33,51.2H61.47a3.27,3.27,0,0,1,2.58,1.29l.1.12,5.46,5.77h-29v3H71a1.49,1.49,0,0,0,1.12-.5l12-12.77A22.6,22.6,0,0,1,88.68,44a7.56,7.56,0,0,1,5.1-.61,2.85,2.85,0,0,1,1.8,1.66.71.71,0,0,1-.09.8L73.86,72.43a6,6,0,0,1-4.68,2.23H38.07a9.52,9.52,0,0,0-7.84,6.25l-7,18.82,2.84,1.12,7.05-18.77a6.46,6.46,0,0,1,5.24-4.36c.21,0,.43,0,.64,0H69.18a8.92,8.92,0,0,0,7-3.36L97.85,47.78A3.77,3.77,0,0,0,98.66,46a3.81,3.81,0,0,0-.21-2Z"></path><rect class="cls-2" x="42.52" y="24.25" width="25.19" height="23.89"></rect><path class="cls-3" d="M72.05,56.57l-5.6-6a6.3,6.3,0,0,0-5-2.45H51.59V38.63a5,5,0,0,1,8.53-3.54,5,5,0,0,1,1.47,3.53v4.71h3V38.66a8,8,0,0,0-16.08,0v9.48H35V21.58L56.52,3.51l21.63,18.8V50Z"></path></g></g></svg>