<svg xmlns="http://www.w3.org/2000/svg" viewBox="0 0 98.7 107.94"><defs><style>.cls-1{fill:#055056;}.cls-2{fill:#ecf0f0;}.cls-3{fill:#ef4f24;}</style></defs><g id="Layer_2" data-name="Layer 2"><g id="Layer_1-2" data-name="Layer 1"><path class="cls-1" d="M98.45,51.15a5.85,5.85,0,0,0-4-3.62,10.65,10.65,0,0,0-7.37,1,25.56,25.56,0,0,0-5.24,4.66l-.58.61V32l9.44,8.21,2-2.24L57.53,7.46a1.52,1.52,0,0,0-2,0L19.17,38.06l2,2.31L32,31.27V55.35h0A8.54,8.54,0,0,0,26,58.83L0,92.62l2.41,1.83L28.5,60.61A5.61,5.61,0,0,1,33,58.29H61.47a3.27,3.27,0,0,1,2.58,1.29l.1.12,5.46,5.77h-29v3H71A1.51,1.51,0,0,0,72.1,68l12-12.78a22.26,22.26,0,0,1,4.61-4.11,7.5,7.5,0,0,1,5.1-.62,2.85,2.85,0,0,1,1.8,1.66.71.71,0,0,1-.09.8L73.86,79.52a6,6,0,0,1-4.68,2.24H39a7.37,7.37,0,0,0-.94,0A9.48,9.48,0,0,0,30.23,88l-7,18.81,2.84,1.12,7.05-18.77a6.46,6.46,0,0,1,5.24-4.36c.21,0,.43,0,.64,0H69.18a8.92,8.92,0,0,0,7-3.36L97.85,54.88a3.85,3.85,0,0,0,.81-1.79,3.77,3.77,0,0,0-.21-1.94Z"></path><path class="cls-2" d="M56.52,10.6,35,28.67V55.25H48.55v0h3v0h9.88a6.3,6.3,0,0,1,5,2.45l5.6,6,6.1-6.59V29.4Z"></path><path class="cls-3" d="M70.34,14.15a46,46,0,0,1,18.16-11,1.6,1.6,0,0,0-1-3c-19,6.41-27,20.18-30.27,29.17a5.42,5.42,0,0,0-.57,0,8.51,8.51,0,1,0,3.59.79,43.4,43.4,0,0,1,7.93-13.55"></path><path class="cls-2" d="M62,37.73a5.34,5.34,0,1,1-5.8-5.3,35.54,35.54,0,0,0-1.12,5.11,1.62,1.62,0,0,0,1.42,1.76h.17a1.6,1.6,0,0,0,1.59-1.43,31.76,31.76,0,0,1,1-4.8A5.33,5.33,0,0,1,62,37.73Z"></path></g></g></svg>